<?xml version="1.0" encoding="iso-8859-1"?>
<!-- Generator: Adobe Illustrator 19.0.0, SVG Export Plug-In . SVG Version: 6.00 Build 0)  -->
<svg version="1.1" id="Capa_1" xmlns="http://www.w3.org/2000/svg" xmlns:xlink="http://www.w3.org/1999/xlink" x="0px" y="0px"
	 viewBox="0 0 512 512" style="enable-background:new 0 0 512 512;" xml:space="preserve">
<g>
	<g>
		<path d="M236.042,338.17c-17.451,0-31.648,14.198-31.648,31.649v5.855c0,17.451,14.197,31.648,31.648,31.648
			s31.648-14.197,31.648-31.648v-5.855C267.689,352.368,253.492,338.17,236.042,338.17z M252.689,375.675
			c0,9.18-7.469,16.648-16.648,16.648s-16.648-7.469-16.648-16.648v-5.855c0-9.181,7.469-16.649,16.648-16.649
			s16.648,7.469,16.648,16.649V375.675z"/>
	</g>
</g>
<g>
	<g>
		<path d="M335.72,269.655c-3.44-2.307-8.1-1.388-10.405,2.054c-3.725,5.555-8.402,8.614-13.172,8.614
			c-4.77,0-9.447-3.06-13.172-8.614c-2.308-3.442-6.967-4.361-10.405-2.054c-3.441,2.307-4.36,6.965-2.054,10.405
			c13.588,20.272,37.581,20.412,51.261,0C340.081,276.62,339.162,271.961,335.72,269.655z"/>
	</g>
</g>
<g>
	<g>
		<path d="M183.515,269.805c-3.44-2.307-8.1-1.388-10.405,2.054c-7.661,11.426-18.612,11.531-26.344,0
			c-2.307-3.442-6.967-4.361-10.405-2.054c-3.441,2.307-4.36,6.965-2.054,10.405c13.588,20.271,37.58,20.411,51.261,0
			C187.876,276.769,186.957,272.111,183.515,269.805z"/>
	</g>
</g>
<g>
	<g>
		<path d="M252.765,117.714l10.971-10.97c12.684-12.687,3.418-34.025-14.094-34.025h-44.75c-10.99,0-19.932,8.941-19.932,19.932
			c0,9.928,7.297,18.184,16.809,19.688l-10.972,10.971c-12.681,12.681-3.421,34.024,14.095,34.024h44.75
			c10.99,0,19.932-8.941,19.932-19.932C269.574,127.474,262.277,119.218,252.765,117.714z M249.642,142.333h-44.75
			c-2.958,0-4.162-2.136-4.543-3.054c-0.379-0.917-1.036-3.273,1.055-5.364l23.53-23.529c4.717-4.717,1.363-12.804-5.303-12.804
			h-14.739c-2.72,0-4.932-2.212-4.932-4.932s2.212-4.932,4.932-4.932h44.75c4.378,0,6.592,5.314,3.486,8.418L229.6,119.666
			c-4.707,4.709-1.373,12.804,5.304,12.804h14.739c2.72,0,4.932,2.212,4.932,4.932S252.362,142.333,249.642,142.333z"/>
	</g>
</g>
<g>
	<g>
		<path d="M492.021,131.541h-47.044l61.139-61.138c5.8-5.801,7.45-14.12,4.306-21.711c-3.1-7.481-10.323-12.314-18.402-12.314
			h-19.746c-4.143,0-7.5,3.357-7.5,7.5s3.357,7.5,7.5,7.5h19.746c4.394,0,6.577,5.33,3.487,8.418l-73.941,73.94
			c-4.707,4.709-1.373,12.804,5.304,12.804h65.15c2.72,0,4.932,2.212,4.932,4.932s-2.212,4.932-4.932,4.932
			c-20.036,0-80.331-0.001-95.162-0.001c-4.449,0-6.546-5.358-3.486-8.418l73.94-73.939c4.707-4.709,1.373-12.804-5.304-12.804
			h-65.15c-2.72,0-4.932-2.212-4.932-4.932s2.212-4.932,4.932-4.932h40.417c4.143,0,7.5-3.357,7.5-7.5s-3.357-7.5-7.5-7.5h-40.417
			c-10.99,0-19.932,8.941-19.932,19.932c0,10.991,8.941,19.932,19.932,19.932h47.044l-36.876,36.875
			c-7.668-8.064-15.919-15.606-24.656-22.505c2.175-12.44-7.48-23.367-19.613-23.367H343.63l33.222-33.221
			C389.513,21.363,380.305,0,362.758,0h-67.245c-10.99,0-19.932,8.94-19.932,19.931c0,10.991,8.941,19.932,19.932,19.932h19.127
			l-10.151,10.151c-64.013-19.371-134.778-10.987-193.616,25.77c-3.513,2.195-4.582,6.822-2.388,10.335
			c2.195,3.514,6.823,4.581,10.335,2.388c53.615-33.505,116.729-41.291,173.53-26.354l-10.933,10.933
			c-12.681,12.681-3.421,34.024,14.095,34.024c71.582-0.077,68.894,0.469,73.34-0.961c1.973-0.637,3.972-1.681,5.487-2.763
			c7.812,6.262,15.209,13.069,22.091,20.331l-13.665,13.664c-8.351,8.352-7.423,21.124,0.4,28.558
			c3.623,3.443,8.476,5.468,13.694,5.468h33.954c49.021,91.174,26.771,199.81-43.402,265.615c-3.021,2.833-3.174,7.58-0.34,10.602
			c2.837,3.025,7.585,3.169,10.602,0.34c73.057-68.513,97.593-180.624,50.007-276.557h44.341c10.99,0,19.932-8.941,19.932-19.932
			C511.952,140.482,503.011,131.541,492.021,131.541z M363.624,92.02c-0.951,0.17,3.687,0.048-68.112,0.088
			c-4.381,0-6.59-5.317-3.487-8.418c6.544-6.544,39.506-39.505,46.023-46.023c4.707-4.709,1.373-12.804-5.304-12.804h-37.233
			c-2.72,0-4.932-2.212-4.932-4.932c0-2.719,2.212-4.931,4.932-4.931h67.245c4.381,0,6.588,5.318,3.486,8.418L320.22,69.44
			c-4.707,4.709-1.373,12.804,5.304,12.804h37.234c2.719,0,4.931,2.212,4.931,4.932C367.688,89.467,366.025,91.584,363.624,92.02z"
			/>
	</g>
</g>
<g>
	<g>
		<path d="M371.432,460.177c-2.339-3.418-7.004-4.295-10.425-1.958c-53.621,36.664-119.329,48.012-182.176,31.174
			C7.285,443.428-42.021,223.665,91.552,108.576c3.138-2.703,3.49-7.439,0.786-10.577c-2.705-3.139-7.441-3.488-10.577-0.786
			C-3.922,171.038-25.007,295.815,31.625,393.904c68.553,118.738,223.722,154.722,337.849,76.697
			C372.893,468.263,373.77,463.597,371.432,460.177z"/>
	</g>
</g>
<g>
</g>
<g>
</g>
<g>
</g>
<g>
</g>
<g>
</g>
<g>
</g>
<g>
</g>
<g>
</g>
<g>
</g>
<g>
</g>
<g>
</g>
<g>
</g>
<g>
</g>
<g>
</g>
<g>
</g>
</svg>
