<?xml version="1.0" encoding="iso-8859-1"?>
<!-- Generator: Adobe Illustrator 19.0.0, SVG Export Plug-In . SVG Version: 6.00 Build 0)  -->
<svg version="1.1" id="Capa_1" xmlns="http://www.w3.org/2000/svg" xmlns:xlink="http://www.w3.org/1999/xlink" x="0px" y="0px"
	 viewBox="0 0 512.002 512.002" style="enable-background:new 0 0 512.002 512.002;" xml:space="preserve">
<g>
	<g>
		<path d="M164.827,141.519h-32.961c-1.415-0.001-2.328,1.5-1.676,2.756c7.656,14.714,28.507,15.06,36.775,0.988
			C167.939,143.607,166.749,141.519,164.827,141.519z"/>
	</g>
</g>
<g>
	<g>
		<circle cx="171.84" cy="111.473" r="8.774"/>
	</g>
</g>
<g>
	<g>
		<circle cx="125.445" cy="111.473" r="8.774"/>
	</g>
</g>
<g>
	<g>
		<path d="M377.33,129.859h-33.693c-1.446,0-2.38,1.534-1.713,2.818c7.773,14.977,29.103,15.451,37.59,1.009
			C380.509,131.993,379.294,129.859,377.33,129.859z"/>
	</g>
</g>
<g>
	<g>
		<circle cx="384.503" cy="99.142" r="8.968"/>
	</g>
</g>
<g>
	<g>
		<circle cx="337.068" cy="99.142" r="8.969"/>
	</g>
</g>
<g>
	<g>
		<g>
			<path d="M494.597,294.258c-2.829-5.338-0.995-5.796-6.021-19.045c-1.471-3.874-5.804-5.82-9.674-4.353
				c-3.873,1.47-5.822,5.801-4.353,9.674c4.607,12.145,2.698,13.029,6.792,20.749c7.731,14.589,0.932,24.311-6.432,21.253
				c-3.776-1.567-3.878-7.75-3.602-11.294c0.441-5.662-0.44-11.327-2.551-16.386c-8.374-20.049-23.026-41.045-30.201-50.763
				l10.347-10.513c3.799,5.297,7.411,10.835,10.784,16.545c2.107,3.565,6.71,4.751,10.273,2.642
				c3.566-2.107,4.75-6.707,2.642-10.273c-4.063-6.876-8.462-13.514-13.103-19.826c4.139-5.422,2.615-13.121-1.967-16.375
				c-27.302-18.473-34.385-26.922-47.54-29.451l-17.769-3.415c18.41-9.399,31.83-26.773,35.245-47.28
				c14.62-3.641,23.926-18.55,17.339-32.274c0.022-0.696,0.008-5.24,0.016-13.042c0-73.221-92.488-107.7-144.327-56.318
				c-29.576,29.319-22.835,63.495-23.746,69.332c-6.591,13.691,2.645,28.639,17.316,32.299
				c3.404,20.519,16.857,37.919,35.305,47.315c-15.016,3.56-22.873,2.647-32.328,9.364c-34.786,24.764-33.171,23.458-34.003,24.295
				c-4.202,4.224-4.532,10.908-1.001,15.542c-2.99,4.066-5.766,8.118-8.323,12.099c-2.615-4.147-5.349-8.184-8.175-12.101
				c4.194-5.553,2.466-13.436-2.173-16.512c-29.492-18.677-32.986-23.9-44.953-26.387l-9.846-2.046
				c3.262-2.34,6.293-4.962,9.065-7.822c0.127,0.134,4.76,10.701,16.267,10.701c8.217,0,16.784-7.763,20.964-14.875
				c4.461-7.598,1.46-17.935-6.689-23.043l-11.667-7.314c15.096-4.807,22.648-21.12,13.888-34.29
				c-0.876-5.426,5.657-38.758-23.826-67.222C154.961-15.98,66.931,19.867,66.931,89.359c0,4.885-0.003,6.73-0.012,11.665
				c-8.878,13.279-1.102,29.571,13.859,34.336l-11.667,7.313c-8.151,5.11-11.151,15.448-6.689,23.043
				c4.167,7.096,12.732,14.875,20.964,14.875c11.494,0,16.139-10.562,16.261-10.693c2.77,2.857,5.8,5.477,9.06,7.816
				c-7.214,1.856-14.527,1.801-23.493,7.73c-32.685,21.688-31.498,20.66-32.532,21.724c-4.103,4.212-4.412,10.883-0.939,15.484
				c-20.98,29.092-30.942,57.422-32.233,64.894c-0.431,2.496-1.173,4.771-2.205,6.759c-8.677,16.701-4.878,30.106,1.571,37.082
				c12.352,13.363,38.414,7.365,36.226-21.306c-0.254-3.327,0.236-6.613,1.417-9.499c7.582-18.517,21.022-38.18,27.712-47.429
				c0.883,0.17,1.788,0.25,2.702,0.227v32.479l-23.258,65.333c-3.7,10.396,1.726,21.76,11.909,25.274
				c4.551,1.57,9.432,2.969,14.56,4.207l-3.016,99.873c-6.231,9.788-5.271,19.542-5.371,20.298c0,6.121,4.94,11.1,11.012,11.1
				h42.438c6.475,0,11.741-5.315,11.741-11.848c-0.094-0.953,0.669-8.134-3.375-16.423l3.514-96.62
				c0.403,0.002,2.476-0.002,3.112-0.006l3.514,96.628c-4.004,8.212-3.285,15.524-3.374,16.421c0,6.533,5.268,11.848,11.741,11.848
				h42.438c6.072,0,11.012-4.98,11.012-11.1v-1.867c0-6.761-1.981-13.106-5.371-18.431l-3.022-100.037
				c5.348-1.314,10.42-2.808,15.132-4.487c9.533-3.396,14.502-13.99,11.075-23.614l-23.02-64.661
				c0.036-0.468,0.029-34.268,0.029-34.368c0.872,0.018,1.738-0.051,2.689-0.236c4.285,5.93,11.411,16.233,17.955,27.744
				c-2.396,7.314-1.795,9.114-4.051,13.373c-15.454,29.161,6.824,51.42,26.69,41.546c19.495,9.817,41.529-12.271,26.347-41.5
				c-2.23-4.293-1.701-6.176-3.743-12.756c6.796-11.801,14.254-22.37,18.718-28.415c0.954,0.191,1.948,0.28,3.011,0.245v55.465
				c0,4.406,2.174,8.303,5.495,10.7l-5.291,161.007c-6.355,9.794-5.388,19.629-5.485,20.35c0,6.121,4.972,11.1,11.082,11.1h43.294
				c6.522,0,11.826-5.315,11.826-11.848c-0.097-0.964,0.685-8.118-3.438-16.435l5.135-133.635h0.373l5.134,133.635
				c-4.086,8.239-3.349,15.535-3.439,16.435c0,6.533,5.307,11.848,11.827,11.848h43.293c6.111,0,11.083-4.98,11.083-11.1
				c-0.128-0.95,0.99-10.372-5.486-20.351l-1.504-45.784c-0.137-4.141-3.633-7.391-7.743-7.251c-4.14,0.136-7.387,3.603-7.251,7.743
				l1.063,32.378c-9.059-3.664-19.197-2.926-27.399,1.345c-5.224-135.98-4.599-119.939-4.669-121.534
				c-0.391-6.935-6.126-12.366-13.057-12.366h-4.081c-7.224,0-12.915,5.912-13.062,12.5l-4.663,121.395
				c-8.345-4.352-18.488-4.947-27.399-1.339l4.787-145.603h84.76l2.57,78.218c0.137,4.141,3.612,7.373,7.743,7.251
				c4.14-0.136,7.387-3.603,7.251-7.743l-2.636-80.218c3.32-2.397,5.495-6.295,5.495-10.7v-55.465
				c1.01,0.033,2.004-0.043,3.012-0.246c6.802,9.21,20.567,28.925,28.326,47.503c1.199,2.872,1.696,6.137,1.438,9.44
				c-2.212,28.461,24.354,34.879,36.911,21.082C499.645,324.148,503.348,310.771,494.597,294.258z M392.907,480.509
				c10.763-1.692,19.765,6.423,20.839,16.491h-36.032C378.394,488.494,384.889,481.796,392.907,480.509z M428.329,109.413V96.883
				C433.143,100.53,433.141,105.768,428.329,109.413z M293.215,109.413c-4.815-3.646-4.813-8.885,0-12.529V109.413z M303.283,54.515
				c-5.789,8.65,0.835,15.027-6.39,25.086c-1.767,0.248-3.482,0.664-5.126,1.23c0.098-0.478-1.61-24.948,19.29-45.664
				C353.743-7.144,429.821,21.448,429.821,80.83v0.018c-1.656-0.574-3.387-0.996-5.171-1.247
				c-8.016-11.164,0.855-20.882-8.342-27.183c-3.212-2.201-7.353-2.305-10.967-1.13c-23.925,7.849-40.959,0.31-41.63,0.003
				c-6.442-3.025-13.074,3.806-9.903,10.141c-5.679-0.673-15.884-2.821-26.784-9.635C316.691,45.338,307.802,47.756,303.283,54.515z
				 M308.217,115.841c0.001-1.573,0.004-15.981,0.006-26.328c0,0,0,0,0-0.001c9.583-12.238,6.926-24.565,7.453-26.473
				c3.941,0.709,19.875,13.598,42.245,13.69c4.898,0.246,10.745-2.533,12.781-8.028c8.621,1.493,20.882,2.024,35.219-1.925
				c0.076,0.484-0.88,12.157,7.401,22.736c0.003,15.45,0.002,11.058,0.005,26.388c0,33.47-33.779,56.999-66.745,48.185
				C324.505,158.174,308.217,138.744,308.217,115.841z M370.828,180.229v9.23c0,5.538-4.504,10.042-10.041,10.042
				c-5.538,0-10.042-4.504-10.042-10.042v-9.227c5.388,0.778,10.132,0.71,10.017,0.71
				C363.973,180.876,366.675,180.83,370.828,180.229z M220.209,155.383c1.387,0.871,1.823,2.367,1.72,2.735
				c-1.887,3.212-4.641,5.797-7.913,7.455c-0.426,0.1-1.891-0.428-2.672-1.869l-3.753-6.926c1.311-2.31,2.469-4.689,3.473-7.127
				L220.209,155.383z M215.762,107.102c4.455,3.505,4.466,8.41,0,11.924V107.102z M81.524,107.102v11.924
				C77.069,115.52,77.057,110.616,81.524,107.102z M85.942,163.705c-0.778,1.438-2.248,1.959-2.621,1.889
				c-3.323-1.679-6.077-4.263-7.939-7.425c-0.127-0.42,0.31-1.915,1.697-2.785l9.146-5.732c1.002,2.438,2.16,4.817,3.471,7.127
				L85.942,163.705z M89.838,79.612l-5.513,10.284c-0.811,0.142-1.609,0.32-2.393,0.533c0-58.831,72.788-85.785,114.218-45.79
				c21.385,20.647,19.089,45.023,19.247,45.801c-0.798-0.217-1.611-0.399-2.436-0.544l-5.514-10.285
				c-3.122-5.818-9.613-9.166-16.147-8.331c-9.698,1.237-27.296,1.076-36.206-13.964c-2.894-4.888-10-4.906-12.906,0.001
				c-8.909,15.041-26.512,15.203-36.207,13.962C99.457,70.445,92.961,73.793,89.838,79.612z M96.527,125.773
				c0.007-31.081,0.003-26.305,0.008-26.904c6.932-12.959,6.607-12.819,7.545-12.708c9.248,1.182,30.132,1.855,44.565-12.775
				c14.432,14.632,35.314,13.959,44.561,12.775c0.975-0.116,0.681-0.126,7.549,12.709c0.003,0.654,0.002,0.706,0.002,0.807
				c0-0.145,0.004,21.201,0.005,26.198c-0.025,32.892-33.259,56.728-66.475,47.664C112.539,167.583,96.527,148.387,96.527,125.773z
				 M158.305,189.796v2.86c0,5.327-4.334,9.661-9.661,9.661c-5.327,0-9.66-4.334-9.66-9.661v-2.859
				c5.663,0.79,10.662,0.661,10.379,0.661C152.351,190.432,155.683,190.162,158.305,189.796z M42.635,294.899
				c-2.061,5.036-2.922,10.68-2.492,16.324c0.22,2.868,0.317,9.714-3.487,11.325c-7.119,3.012-13.522-6.922-6.038-21.328
				c1.744-3.36,2.98-7.102,3.675-11.12c1.055-6.105,9.878-30.599,27.986-56.39l10.004,10.369
				C65.266,253.771,50.855,274.823,42.635,294.899z M96.864,496.942c0.87-8.39,7.191-15.604,15.51-16.598
				c9.705-1.171,18.72,6.323,19.515,16.598H96.864z M129.101,468.804c-8.326-4.311-18.111-4.711-26.571-1.295l2.531-83.829
				c1.197,0.14,11.388,2.053,27.031,2.922L129.101,468.804z M165.398,496.942c0.838-10.82,10.884-18.753,21.34-16.274
				c7.242,1.728,12.857,8.306,13.684,16.274H165.398z M165.193,386.563c8.839-0.519,18.31-1.535,27.027-2.995l2.536,83.942
				c-8.655-3.494-18.442-2.91-26.572,1.298L165.193,386.563z M219.212,357.437c0.641,1.804-0.266,3.842-1.979,4.453
				c-37.776,13.459-98.713,13.519-136.755,0.394c-2.229-0.769-3.589-3.475-2.67-6.062l21.918-61.569h97.134L219.212,357.437z
				 M210.636,237.364c-5.901-5.14-15.286-0.98-15.286,7.037v8.083h-46.367c-4.143,0-7.501,3.357-7.501,7.501
				s3.357,7.501,7.501,7.501h46.367v12.169h-93.415v-12.169h12.044c4.143,0,7.501-3.357,7.501-7.501s-3.357-7.501-7.501-7.501
				h-12.045c-0.107-7.395,0.276-8.655-0.43-10.897c-1.996-6.344-9.85-8.58-14.855-4.221L66.106,216.07l27.385-18.113
				c6.283-4.154,10.146-3.436,30.49-8.096v2.796c0,13.599,11.063,24.663,24.662,24.663c13.599,0,24.663-11.064,24.663-24.663v-2.796
				l22.057,4.584c7.6,1.579,9.137,4.543,35.817,21.624L210.636,237.364z M225.006,244.074c11.747-12.173,9.662-10.012,10.001-10.364
				c3.524,5.023,6.879,10.258,10.027,15.651c-2.81,5.133-5.142,9.836-7.048,13.966C232.993,255.331,228.249,248.544,225.006,244.074
				z M264.015,323.063c2.976-9.782-0.572-14.415,2.505-22.134c0.05,0.098,0.099,0.195,0.15,0.292
				C273.352,314.085,268.806,322.376,264.015,323.063z M253.932,292.206c-7.284,16.416-1.017,23.082-5.416,28.835
				c-1.73,2.315-6.221,3.226-9.142,0.02c-2.814-3.092-4.287-10.128,0.828-19.779c4.907-9.262,1.014-13.342,20.045-48.411
				c3.526-6.157,7.646-12.681,12.392-19.291l10.349,10.514C272.515,258.278,261.082,276.049,253.932,292.206z M325.276,480.284
				c9.671-0.265,17.789,7.157,18.553,16.716h-36.032C308.778,487.811,316.292,480.531,325.276,480.284z M424.027,237.466
				c-5.904-5.283-15.454-1.14-15.454,6.941v62.628H312.97v-62.627c0-8.057-9.543-12.237-15.454-6.939l-21.185-21.526
				c29.42-20.418,29.833-22.38,35.889-23.852l23.524-4.591v1.96c0,13.809,11.234,25.044,25.044,25.044
				c13.808,0,25.043-11.234,25.043-25.044v-1.986l21.169,4.068c9.771,2.35,12.95,7.131,38.214,24.4
				c-6.569,6.674-9.279,9.428-10.255,10.419c0.14-0.142,0.271-0.275,0.328-0.334C435.024,226.293,432.796,228.556,424.027,237.466z
				 M434.484,226.842C434.477,226.85,434.478,226.849,434.484,226.842L434.484,226.842z M434.879,226.441
				c-0.026,0.026-0.048,0.049-0.071,0.073C434.831,226.49,434.855,226.466,434.879,226.441z M434.7,226.623
				c-0.073,0.074-0.126,0.128-0.161,0.164C434.579,226.746,434.635,226.689,434.7,226.623z"/>
			<path d="M435.286,226.027c0,0,0.001-0.001,0.001-0.001C435.287,226.026,435.287,226.026,435.286,226.027z"/>
			<path d="M435.288,226.026C435.323,225.99,435.326,225.987,435.288,226.026L435.288,226.026z"/>
		</g>
	</g>
</g>
<g>
</g>
<g>
</g>
<g>
</g>
<g>
</g>
<g>
</g>
<g>
</g>
<g>
</g>
<g>
</g>
<g>
</g>
<g>
</g>
<g>
</g>
<g>
</g>
<g>
</g>
<g>
</g>
<g>
</g>
</svg>
