<?xml version="1.0" encoding="iso-8859-1"?>
<!-- Generator: Adobe Illustrator 19.0.0, SVG Export Plug-In . SVG Version: 6.00 Build 0)  -->
<svg version="1.1" id="Capa_1" xmlns="http://www.w3.org/2000/svg" xmlns:xlink="http://www.w3.org/1999/xlink" x="0px" y="0px"
	 viewBox="0 0 512.002 512.002" style="enable-background:new 0 0 512.002 512.002;" xml:space="preserve">
<g>
	<g>
		<g>
			<path d="M203.771,402.844c-0.009,0.014-0.021,0.033-0.032,0.05C203.755,402.87,203.764,402.855,203.771,402.844z"/>
			<path d="M203.771,402.843C203.771,402.844,203.771,402.844,203.771,402.843C203.771,402.844,203.771,402.844,203.771,402.843z"/>
			<path d="M456.355,397.091c-26.798-36.765-34.809-47.796-35.148-48.186c-5.426-6.234-14.425-8.098-21.879-4.531l-15.176,7.26
				l-58.126,2.568c-3.527,0.133-6.689-1.804-8.137-4.986l-18.657-41.014c1.644-22.847-15.579-42.133-20.326-46.983l-13.459-30.517
				l1.772,0.84c3.892,1.846,7.108,4.782,9.3,8.491l21.994,37.221c0.524,0.706,7.69,21.211,31.623,28.618
				c11.044,3.414,18.611-3.659,19.308-4.028c7.752-5.368,9.607-16.016,4.127-23.689c-15.172-21.925-7.753-9.241-16.63-26.134
				c-1.905-3.678-6.433-5.113-10.11-3.209c-3.678,1.906-5.114,6.433-3.209,10.11l4.703,9.077c1.97,3.804,3.359,5.16,13.039,18.876
				c0.611,0.856,0.402,2.038-0.458,2.635c-1.182,0.608-3.121,3.026-6.335,2.031c-17.198-5.321-22.097-20.257-22.636-20.996
				c-0.281-0.597,1.05,1.735-22.501-38.144c-3.72-6.296-9.18-11.279-15.786-14.413l-33.561-15.917l12.042-19.573
				c40.475,24.445,44.059,23.487,47.857,30.813l7.53,14.533c1.906,3.679,6.436,5.114,10.11,3.209
				c3.678-1.905,5.114-6.433,3.209-10.11c-6.232-10.438-7.949-20.448-19.643-27.252l-43.273-25.178
				c-0.237-4.239-2.468-8.303-6.351-10.692l-17.208-10.586c-10.821-6.658-24.04-6.2-34.181,0.05
				c-3.814-9.231-4.342-17.875-4.385-21.276c17.963-33.081,22.035-61.168,12.078-83.498c-12.087-27.11-40.497-35.518-45.319-36.768
				c-3.057-1.217-16.633-6.157-33.481-5.714C111.354,0.51,86.567,7.164,69.11,36.13c-7.955,13.198-9.082,24.962-3.352,34.962
				c3.095,5.401,8.034,9.686,13.975,13.088c-0.393,12.268,2.11,24.431,3.103,28.709l-2.632,16.6
				c-0.562,3.541,0.422,7.162,2.698,9.933c6.373,7.759,15.843,2.677,17.253,5.771c7.966,17.498,20.764,26.689,35.105,25.245
				c11.547-1.171,18.184,11.647,20.461,17.078c-0.061,12.073-0.036,14.762,0.514,20.284c-19.808,30.075-19.959,36.733-29.896,41.185
				l-9.59,4.295c-3.78,1.693-5.474,6.131-3.779,9.911c1.693,3.782,6.136,5.472,9.911,3.779c5.808-3.232,17.589-5.313,25.687-18.363
				l11.588-18.676c1.86,7.495,4.489,16.021,8.208,25.323c-9.645,12.024-10.981,17.322-18.107,20.047
				c-60.849,23.421-58.207,21.984-62.13,24.167c-19.886,10.65-16.097,10.736-19.314,5.832c-0.739-1.376-0.804-2.987-0.178-4.418
				c3.984-9.098,11.663-16.147,21.066-19.34c3.922-1.331,6.023-5.591,4.69-9.514c-1.332-3.923-5.594-6.023-9.514-4.69
				c-13.385,4.544-24.314,14.577-29.986,27.527c-4.541,10.381,1.635,18.989,1.836,19.638c4.42,8.23,14.763,11.386,23.075,6.762
				c24.966-13.774,2.264-3.497,75.815-31.953c5.587-2.139,10.429-5.807,13.997-10.606l5.771-7.759
				c5.173,10.44,11.703,21.557,19.941,33.059c-48.454,62.796-26.407,31.381-89.499,129.808c-17.512-5.246-35.902-3.133-48.222,5.899
				c-9.974,7.313-8.538,22.744,2.904,28.94c63.185,43.789,59.208,41.069,59.691,41.347c7.92,4.597,15.973,0.799,20.589-6.642
				c55.592-88.725,62.305-99.438,62.934-100.443c-0.001,0.002-0.002,0.004-0.003,0.005c0.009-0.014,0.026-0.041,0.056-0.09
				c-0.002,0.003-0.004,0.006-0.006,0.01c0.003-0.005,0.007-0.01,0.008-0.013c7.929-12.673,13.948-12.698,42.17-32.642
				l29.847,40.838c7.814,10.691,20.784,16.053,33.84,14.04l5.716-0.882c4.094-0.632,6.901-4.462,6.27-8.557
				c-0.631-4.093-4.451-6.897-8.557-6.27c-1.964-0.1-16.109,5.2-25.158-7.186L258.05,361.32
				c11.287-8.603,26.065-20.844,34.015-32.642l12.167,26.748c3.999,8.787,12.823,14.177,22.454,13.762l53.439-2.36
				c0.231,0.987,7.208,30.722,7.287,31.06l-39.343,6.07c-4.094,0.632-6.901,4.462-6.27,8.557c0.628,4.072,4.437,6.902,8.557,6.27
				l44.095-6.803c14.954,11.467,37.722,19.546,54.424,13.988C461.174,421.879,465.057,406.518,456.355,397.091z M202.346,165.764
				c5.074-8.244,15.91-10.827,24.157-5.755l15.849,9.751l-17.811,28.949l-16.809-10.341
				C200.016,183.622,197.599,173.481,202.346,165.764z M78.775,63.633c-1.053-1.835-4.253-7.421,3.184-19.761
				c26.531-44.029,73.195-24.981,75.305-24.089c1.064,0.456,26.988,6.396,36.964,28.958c7.208,16.303,4.562,37.409-7.851,62.829
				l-7.712-7.636c-1.25-4.488,0.095-14.963-9.648-21.444c-10.433-6.941-20.858-0.301-25.549-0.301
				C121.868,82.19,86.595,77.28,78.775,63.633z M167.944,177.705c-0.133-0.108-0.271-0.209-0.411-0.307
				c-7.049-13.696-18.518-23.427-33.785-21.885c-10.315,1.046-16.921-9.911-19.938-16.535c-5.216-11.458-17.534-9.695-18.352-9.907
				l2.429-15.314c0.561-3.523-2.406-8.541-3.106-23.213c20.301,6.331,48.763,7.293,52.279,6.414l10.235-2.563
				c2.436-0.612,4.894,1.002,5.277,3.512c1.789,9.395,0.928,12.124,3.774,14.943l14.464,14.323
				c0.169,6.041,1.415,18.825,8.233,31.635c-0.866,1.517-1.597,3.077-2.185,4.668C185.011,166.052,177.702,175.437,167.944,177.705z
				 M170.723,192.449c6.211-1.333,11.601-4.284,16.004-7.597c2.31,6.55,6.783,12.381,13.145,16.294
				c18.841,10.985,22.201,16.121,30.244,12.796l14.599,6.925l18.304,41.501l-56.196,31.923
				C186.32,265.325,170.061,227.618,170.723,192.449z M127.115,496.569c-62.194-43.081-58.449-40.595-59.339-41.044
				c-1.573-0.792-2.473-2.85-1.299-3.713c10.527-7.716,26.778-6.976,38.916-2.33l35.795,25.069
				C128.541,494.459,128.532,495.033,127.115,496.569z M282.316,315.462c-3.621,8.931-17.452,22.362-38.658,37.927
				c-0.157,0.098-0.315,0.195-0.467,0.306c-0.147,0.107-0.282,0.224-0.419,0.34c-31.878,23.263-40.945,23.637-51.707,40.836
				l-41.893,66.953l-30.007-21.015c61.524-96.023,40.441-66.148,90.564-130.917c14.935-8.484,50.306-28.577,61.432-34.897
				C277.444,282.422,288.95,299.1,282.316,315.462z M444.141,411.732c-11.239,3.737-29.364-3.08-40.861-11.895l-8.591-36.616
				l11.112-5.315c1.322-0.633,2.905-0.352,3.931,0.677c36.897,50.578,34.773,47.844,35.524,48.601
				C446.19,408.125,446.115,411.076,444.141,411.732z"/>
			<path d="M203.739,402.894c-0.004,0.007-0.01,0.016-0.015,0.024C203.729,402.912,203.734,402.903,203.739,402.894z"/>
		</g>
	</g>
</g>
<g>
</g>
<g>
</g>
<g>
</g>
<g>
</g>
<g>
</g>
<g>
</g>
<g>
</g>
<g>
</g>
<g>
</g>
<g>
</g>
<g>
</g>
<g>
</g>
<g>
</g>
<g>
</g>
<g>
</g>
</svg>
